<?xml version="1.0" encoding="utf-8"?>
<!DOCTYPE svg PUBLIC "-//W3C//DTD SVG 1.1//EN" "http://www.w3.org/Graphics/SVG/1.1/DTD/svg11.dtd">
<svg version="1.1" id="Calque_1" xmlns="http://www.w3.org/2000/svg" xmlns:xlink="http://www.w3.org/1999/xlink" x="0px" y="0px"
	 width="283.46px" height="141.73px" viewBox="0 0 283.46 141.73" enable-background="new 0 0 283.46 141.73" xml:space="preserve">
<polygon fill="#1B3092" points="61.974,38.668 39.669,43.88 24.003,27.17 30.642,5.248 52.947,0.036 68.613,16.746 "/>
<polygon fill="#80CAE0" points="67.457,54.856 50.696,51.511 45.213,35.323 56.491,22.48 73.252,25.826 78.735,42.014 "/>
<polygon fill="#1D7EB7" points="68.613,43.88 93.859,22.105 125.34,33.081 131.575,65.833 106.329,87.607 74.848,76.632 "/>
<polygon fill="#80CAE0" points="87.822,24.569 67.244,20.526 60.456,0.683 74.246,-15.117 94.825,-11.074 101.613,8.769 "/>
<polygon fill="#1D7EB7" points="146.569,33.969 113.721,43.344 89.178,19.584 97.482,-13.551 130.331,-22.926 154.874,0.833 "/>
<polygon fill="#1E73B2" points="72.418,35.535 88.025,25.193 104.785,33.539 105.938,52.226 90.331,62.567 73.571,54.222 "/>
<polygon fill="#609CC8" points="63.802,29.791 80.53,0.816 113.987,0.817 130.715,29.791 113.987,58.766 80.53,58.766 "/>
<polygon fill="#10083F" points="82.601,100.026 52.454,120.91 19.294,105.244 16.282,68.694 46.429,47.811 79.588,63.477 "/>
<polygon fill="#1B3092" points="118.497,77.112 111.596,110.055 79.616,120.55 54.538,98.103 61.438,65.16 93.418,54.665 "/>
<polygon fill="#10083F" points="131.575,53.551 178.938,33.133 220.304,63.942 214.305,115.17 166.94,135.588 125.575,104.778 "/>
<polygon fill="#80CAE0" points="144.741,54.856 123.427,26.27 137.527,-6.481 172.94,-10.646 194.254,17.94 180.154,50.691 "/>
<polygon fill="#1B3092" points="146.569,41.279 149.569,73.16 123.459,91.698 94.35,78.355 91.35,46.475 117.46,27.937 "/>
<polygon fill="#1B3092" points="204.794,43.344 232.113,7.562 276.761,13.331 294.089,54.88 266.77,90.662 222.122,84.895 "/>
<polygon fill="#1E73B2" points="190.434,22.105 167.711,12.604 164.577,-11.824 184.166,-26.752 206.889,-17.252 210.022,7.177 "/>
<polygon fill="#1E73B2" points="184.167,25.193 207.589,20.927 222.994,39.078 214.978,61.495 191.556,65.761 176.15,47.61 "/>
<polygon fill="#10083F" points="252.313,19.608 212.036,31.93 181.227,3.209 190.694,-37.833 230.972,-50.154 261.781,-21.434 "/>
<polygon fill="#80CAE0" points="111.596,110.055 127.674,103.195 141.654,113.69 139.555,131.045 123.476,137.904 109.497,127.409 
	"/>
<polygon fill="#1E73B2" points="116.021,110.731 83.388,100.936 75.555,67.776 100.355,44.413 132.988,54.209 140.821,87.368 "/>
<polygon fill="#80CAE0" points="240.564,103.195 215.177,131.953 177.578,124.346 165.367,87.98 190.755,59.223 228.354,66.83 "/>
<polygon fill="#1E73B2" points="233.515,88.799 262.771,78.857 286.008,99.223 279.989,129.529 250.733,139.471 227.496,119.105 "/>
</svg>
